<?xml version="1.0" encoding="UTF-8"?>
<svg version="1.1" xmlns="http://www.w3.org/2000/svg" width="500" height="500">
<path d="M0 0 C12.38919035 9.8736187 18.5634769 20.36765592 24 35 C24.4125 33.97261719 24.825 32.94523437 25.25 31.88671875 C31.92781037 15.68430393 40.61977623 2.78399286 56.96875 -4.8125 C70.37884441 -10.06593905 85.3978747 -9.37217554 98.5859375 -3.93359375 C106.38658237 -0.29729314 114.1987529 4.69375441 119 12 C119 12.66 119 13.32 119 14 C119.66 14 120.32 14 121 14 C130.0208768 30.70715812 133.53712591 45.66706162 129.0546875 64.6640625 C127.40626349 69.87796659 124.884427 74.38040988 122 79 C120.9989779 80.66605298 119.99868839 82.33254707 119 84 C119.67546875 83.72285156 120.3509375 83.44570312 121.046875 83.16015625 C122.38492188 82.61681641 122.38492188 82.61681641 123.75 82.0625 C125.07257813 81.52302734 125.07257813 81.52302734 126.421875 80.97265625 C136.65959409 77.11024405 148.90790503 78.27936539 159.00390625 82.15234375 C170.52704783 87.46505653 179.85039021 95.74876586 185.125 107.375 C185.62257813 108.45523438 186.12015625 109.53546875 186.6328125 110.6484375 C191.4096536 122.35852226 191.89489141 135.37148828 187.26171875 147.22265625 C181.26546876 160.42183193 174.64649154 167.83424603 162 175 C161.27683594 175.43828125 160.55367187 175.8765625 159.80859375 176.328125 C153.86079433 179.34990503 147.85303144 179.3795744 141.3125 179.4375 C140.40902832 179.44773193 139.50555664 179.45796387 138.57470703 179.46850586 C132.98544144 179.39484088 128.87947841 178.80429794 124 176 C122.171875 173.93359375 122.171875 173.93359375 120.75 171.4375 C120.18796875 170.47585938 119.6259375 169.51421875 119.046875 168.5234375 C118.57797852 167.70311035 118.57797852 167.70311035 118.09960938 166.86621094 C116.81145551 164.6800102 115.44898853 162.5493448 114.078125 160.4140625 C113.05188472 158.79700103 112.02584337 157.1798133 111 155.5625 C110.49436523 154.78124756 109.98873047 153.99999512 109.46777344 153.19506836 C108.77216309 152.07950562 108.77216309 152.07950562 108.0625 150.94140625 C107.64097656 150.27826416 107.21945312 149.61512207 106.78515625 148.93188477 C105.79122726 146.48631259 105.989984 145.41457923 107 143 C109.6171875 140.74609375 109.6171875 140.74609375 112.875 138.4375 C117.89797303 135.20035968 117.89797303 135.20035968 122 131 C122.21041957 128.50477212 122.21041957 128.50477212 121 126 C118.40721656 123.54011535 118.40721656 123.54011535 115.1875 121.375 C114.12917969 120.61960938 113.07085937 119.86421875 111.98046875 119.0859375 C110.21707728 117.85179458 108.430016 116.64874157 106.59765625 115.51953125 C105 114 105 114 104.828125 111.73828125 C104.96734375 110.93777344 105.1065625 110.13726562 105.25 109.3125 C105.44335938 108.10013672 105.44335938 108.10013672 105.640625 106.86328125 C105.81851563 105.94095703 105.81851563 105.94095703 106 105 C104.68 104.34 103.36 103.68 102 103 C101.8453125 104.175625 101.8453125 104.175625 101.6875 105.375 C101 108 101 108 98 110 C97.40574219 109.50371094 96.81148437 109.00742188 96.19921875 108.49609375 C90.92641915 104.17453016 85.59070901 100.33496108 79.73828125 96.8359375 C76.90839109 94.9385789 74.45029912 92.83540476 71.89038086 90.59716797 C68.61214927 87.8274158 65.11761403 85.36495522 61.625 82.875 C60.84914551 82.31804443 60.07329102 81.76108887 59.27392578 81.18725586 C53.15263226 76.80084462 47.00403602 72.4525288 40.83447266 68.13427734 C40.18526855 67.67875488 39.53606445 67.22323242 38.8671875 66.75390625 C38.23264648 66.30934082 37.59810547 65.86477539 36.94433594 65.40673828 C35.5776131 64.41790642 34.23347273 63.39747308 32.90722656 62.35498047 C28.02733681 58.2887437 28.02733681 58.2887437 22 57 C20.06852106 57.94374526 20.06852106 57.94374526 18.3125 59.625 C13.86310148 63.33774313 9.27126501 66.75306242 4.5625 70.125 C2.98951962 71.25642185 1.41660416 72.38793394 -0.15625 73.51953125 C-1.35314453 74.37925537 -1.35314453 74.37925537 -2.57421875 75.25634766 C-6.53321312 78.10207409 -10.48521394 80.95746809 -14.4375 83.8125 C-15.19369629 84.35825684 -15.94989258 84.90401367 -16.72900391 85.46630859 C-20.76647283 88.38122061 -24.79401638 91.3089359 -28.8125 94.25 C-30.54003092 95.50225966 -32.26927913 96.7521528 -34 98 C-34.54027832 98.3923584 -35.08055664 98.7847168 -35.63720703 99.18896484 C-37.37675118 100.44765939 -39.12477838 101.69370768 -40.875 102.9375 C-41.92429688 103.68902344 -42.97359375 104.44054687 -44.0546875 105.21484375 C-46.89354377 106.93547679 -48.78726853 107.46115794 -52 108 C-54.02530967 104.6068182 -56.04462872 101.21010998 -58.0625 97.8125 C-58.65869141 96.8119458 -59.25488281 95.8113916 -59.86914062 94.78051758 C-63.67415991 88.35876951 -67.22790467 81.90986328 -70.4375 75.16796875 C-72.44659961 72.38034305 -73.73128199 72.59952563 -77 72 C-84.11790034 61.54894391 -84.08224584 46.02323052 -81.875 34.125 C-78.47320749 19.70639321 -70.56472272 8.12075339 -58.5 -0.5 C-41.08325617 -11.10013673 -17.14532659 -11.32630665 0 0 Z M50.625 30.0625 C35.60586542 39.11061278 22.36309989 42.347552 5.00488281 44.57275391 C0.63006634 45.19478257 -3.68284033 46.06366839 -8 47 C-8 48.98 -8 50.96 -8 53 C9.84345242 53.31403778 26.42279134 51.79349617 42.18066406 43.00341797 C44.94342125 41.47967507 47.786947 40.12698127 50.625 38.75 C54.83342622 36.6283967 58.94278792 34.3974435 63 32 C62.505 29.525 62.505 29.525 62 27 C57.14303101 26.65103888 54.6786146 27.4201008 50.625 30.0625 Z M94 76 C93.34 77.32 92.68 78.64 92 80 C93.06012706 81.23121385 94.12324005 82.45985685 95.1875 83.6875 C95.77917969 84.37199219 96.37085938 85.05648437 96.98046875 85.76171875 C101.71834968 91.01279375 106.93096117 95.72867738 112.18359375 100.45117188 C115.79829663 103.74693038 118.94603933 107.17685147 122 111 C125.29075996 110.62095792 125.29075996 110.62095792 128 109 C128.47519236 106.62484664 128.47519236 106.62484664 128 104 C125.98975525 101.8602787 125.98975525 101.8602787 123.3125 100.0625 C120.175569 97.72422187 117.41536323 95.58670285 115 92.5 C114.34 91.675 113.68 90.85 113 90 C112.34 90 111.68 90 111 90 C111 89.34 111 88.68 111 88 C109.38200498 86.36324492 109.38200498 86.36324492 107.3125 84.6875 C104.80865507 82.57667482 102.45537063 80.48218564 100.25 78.0625 C98.01727705 75.54951691 98.01727705 75.54951691 94 76 Z " fill="#BA85B8" transform="translate(226,121)"/>
<path d="M0 0 C3.49783938 2.87904098 5.32102502 6.12312386 7.375 10.125 C10.01203427 15.17742127 12.79619629 20.05920963 15.8359375 24.87890625 C16.98801357 26.97815896 17.71097768 28.62304061 18 31 C14.34858288 35.69467916 9.24266585 38.67866008 4.328125 41.9375 C1.88398028 43.82790502 1.88398028 43.82790502 0.859375 46.4375 C0.75967262 49.20697756 0.75967262 49.20697756 3.04296875 51.51171875 C6.06541729 54.05504731 9.13144094 56.47040157 12.3125 58.8125 C12.86228516 59.21919922 13.41207031 59.62589844 13.97851562 60.04492188 C15.31625547 61.03368611 16.65773623 62.01738585 18 63 C17.45509777 66.95771091 16.6353752 70.26016892 14.9375 73.875 C14.57527344 74.65617187 14.21304688 75.43734375 13.83984375 76.2421875 C13.42412109 77.11230469 13.42412109 77.11230469 13 78 C10.32543283 77.62207203 9.19388186 77.20233084 7.296875 75.22265625 C6.78640625 74.50980469 6.2759375 73.79695313 5.75 73.0625 C5.22921875 72.35222656 4.7084375 71.64195312 4.171875 70.91015625 C3 69 3 69 3 67 C1.02 67.33 -0.96 67.66 -3 68 C-2.46928498 72.14393916 -1.29025618 74.24658749 1.4375 77.375 C5.5665558 82.31645125 9.09883119 87.50854186 12.58569336 92.90966797 C15.33834389 97.35359024 15.33834389 97.35359024 19 101 C21.65466049 100.76956136 21.65466049 100.76956136 24 100 C22.48710317 96.01869255 21.19663955 93.03188192 18.25 89.9375 C16 87 16 87 16.16796875 84.24609375 C17.09713815 80.62102441 18.4448985 77.49787121 20.0625 74.125 C20.61035156 72.97257812 21.15820312 71.82015625 21.72265625 70.6328125 C22.14417969 69.76398438 22.56570312 68.89515625 23 68 C27.47138063 68.54768282 30.16844158 70.2162838 33.8125 72.8125 C34.36945557 73.20703369 34.92641113 73.60156738 35.50024414 74.00805664 C40.73193808 77.74148218 45.8616796 81.61426228 50.98999023 85.48779297 C56.34956168 89.53258355 61.78535754 93.45542988 67.26171875 97.33984375 C72.55050318 101.09312791 77.79689801 104.90543452 83.04833984 108.71069336 C83.77875488 109.23928955 84.50916992 109.76788574 85.26171875 110.3125 C86.23564575 111.01826172 86.23564575 111.01826172 87.22924805 111.73828125 C88.79811759 112.85615217 90.39714477 113.93142985 92 115 C92 115.66 92 116.32 92 117 C92.94875 117.309375 93.8975 117.61875 94.875 117.9375 C98 119 98 119 100 120 C105.63031537 117.31042556 110.74684911 113.56950678 115.671875 109.765625 C118.73422672 107.44317034 121.86629273 105.22477155 125 103 C129.37999186 99.88449575 133.72796141 96.73940398 138.01171875 93.4921875 C141.4176586 90.93605975 144.87623387 88.45207946 148.32421875 85.953125 C150.67096067 84.24017469 152.99624714 82.50379758 155.3125 80.75 C158.46368237 78.37223156 161.71499578 76.19000281 165 74 C167.06673261 72.40351821 169.12554688 70.79936698 171.16796875 69.171875 C173 68 173 68 176 68 C177.42285156 69.72143555 177.42285156 69.72143555 178.890625 72.13671875 C179.70273437 73.45965942 179.70273437 73.45965942 180.53125 74.80932617 C181.0984375 75.75912354 181.665625 76.7089209 182.25 77.6875 C182.83265625 78.64180908 183.4153125 79.59611816 184.015625 80.5793457 C187.79382689 86.81749015 191.29492841 93.11518968 194.4375 99.69921875 C195.82437779 102.2082233 195.82437779 102.2082233 198.546875 102.99609375 C201 104 201 104 202.328125 106.4609375 C202.63234375 107.42257812 202.9365625 108.38421875 203.25 109.375 C203.56453125 110.33148438 203.8790625 111.28796875 204.203125 112.2734375 C208.12172497 125.68119621 207.84280845 141.08636905 201.83203125 153.76953125 C193.68187005 168.14092423 183.41549635 178.12407346 167.375 182.8125 C154.1884796 185.77861963 139.81215063 185.04794135 127.875 178.375 C114.79831839 169.8531176 105.90761573 158.85854164 101 144 C101 143.01 101 142.02 101 141 C100.34 141 99.68 141 99 141 C98.86851562 141.72832031 98.73703125 142.45664062 98.6015625 143.20703125 C95.63613968 156.97506577 87.00554604 167.57886978 76 176 C63.38546011 183.88816189 49.00874623 186.12216795 34.43359375 183.3125 C20.03889922 179.23371997 8.28165967 170.82146894 0.5703125 157.9453125 C-7.02974195 143.690484 -9.60549323 128.84669947 -5.1328125 113.10546875 C-2.85924858 106.87276765 0.0420931 100.93202151 3 95 C2.00742188 95.22816406 1.01484375 95.45632813 -0.0078125 95.69140625 C-15.9286229 99.14627538 -29.47538607 98.30069492 -43.6875 89.75 C-55.76468144 81.58974227 -62.43467333 71.17953312 -66 57 C-68.91660081 41.14686335 -64.109443 27.46355945 -55.26953125 14.453125 C-42.46884572 -1.23607626 -18.94981128 -8.47837967 0 0 Z M91 129 C88.5441823 131.50412887 86.23361424 134.06998938 83.98046875 136.7578125 C82 139 82 139 79 141 C79 141.66 79 142.32 79 143 C78.45859375 143.23074219 77.9171875 143.46148437 77.359375 143.69921875 C74.2929703 145.3898028 71.87467817 147.49681172 69.25 149.8125 C68.26515625 150.66457031 67.2803125 151.51664063 66.265625 152.39453125 C63.75546865 154.78597009 63.75546865 154.78597009 63.671875 157.82421875 C63.78015625 158.54222656 63.8884375 159.26023437 64 160 C65.73209325 160.86060177 65.73209325 160.86060177 68 161 C77.05269312 155.37460444 85.26926486 146.66395406 92 138.4375 C94 136 94 136 96 135 C101.56756781 134.76601816 106.56375863 135.29610166 112 136.4375 C122.41240983 138.63400123 122.41240983 138.63400123 133 139 C134.24660324 137.94945399 134.24660324 137.94945399 134.375 135.625 C134.28749103 132.85586871 134.28749103 132.85586871 132.01171875 131.43359375 C128.1893138 129.61410916 124.60290084 129.03112414 120.4375 128.4375 C118.82408745 128.19618875 117.21080601 127.95399927 115.59765625 127.7109375 C114.81277832 127.59459961 114.02790039 127.47826172 113.21923828 127.35839844 C110.2450083 126.87807175 107.31860508 126.20159689 104.375 125.5625 C98.7879479 124.67871597 95.37341468 125.36426972 91 129 Z " fill="#BC85B9" transform="translate(150,203)"/>
<path d="M0 0 C12.38919035 9.8736187 18.5634769 20.36765592 24 35 C24.99 32.36 25.98 29.72 27 27 C28.04692525 31.18770101 27.85469996 32.32171213 26.5625 36.25 C26.27503906 37.14203125 25.98757812 38.0340625 25.69140625 38.953125 C25.46324219 39.62859375 25.23507813 40.3040625 25 41 C26.485 41.495 26.485 41.495 28 42 C23.8756955 42.6503259 19.7504415 43.29442956 15.625 43.9375 C14.46871094 44.11990234 13.31242187 44.30230469 12.12109375 44.49023438 C5.42566386 45.53048478 -1.24824686 46.42207772 -8 47 C-8 48.98 -8 50.96 -8 53 C-7.18845459 52.90912109 -6.37690918 52.81824219 -5.54077148 52.72460938 C-1.84010867 52.31245588 1.86117653 51.90617588 5.5625 51.5 C6.83931641 51.35691406 8.11613281 51.21382812 9.43164062 51.06640625 C11.29272461 50.86337891 11.29272461 50.86337891 13.19140625 50.65625 C14.32779541 50.53056641 15.46418457 50.40488281 16.63500977 50.27539062 C20.1053227 49.9913804 23.51969272 49.95357011 27 50 C25.68 50.33 24.36 50.66 23 51 C23 51.99 23 52.98 23 54 C23.66 54 24.32 54 25 54 C25 54.66 25 55.32 25 56 C24.14921875 56.38671875 23.2984375 56.7734375 22.421875 57.171875 C18.64514911 59.18957787 15.55350655 61.55406658 12.25 64.25 C7.56327108 68.00158348 2.83933892 71.5988419 -2.11328125 74.99609375 C-6.09224457 77.75821578 -10.01320463 80.59844286 -13.9375 83.4375 C-14.72503662 84.00678223 -15.51257324 84.57606445 -16.32397461 85.16259766 C-20.49531216 88.18023507 -24.65749431 91.20990053 -28.8125 94.25 C-30.54003092 95.50225966 -32.26927913 96.7521528 -34 98 C-34.54027832 98.3923584 -35.08055664 98.7847168 -35.63720703 99.18896484 C-37.37675118 100.44765939 -39.12477838 101.69370768 -40.875 102.9375 C-41.92429688 103.68902344 -42.97359375 104.44054687 -44.0546875 105.21484375 C-46.89354377 106.93547679 -48.78726853 107.46115794 -52 108 C-54.02530967 104.6068182 -56.04462872 101.21010998 -58.0625 97.8125 C-58.65869141 96.8119458 -59.25488281 95.8113916 -59.86914062 94.78051758 C-63.67415991 88.35876951 -67.22790467 81.90986328 -70.4375 75.16796875 C-72.44659961 72.38034305 -73.73128199 72.59952563 -77 72 C-84.11790034 61.54894391 -84.08224584 46.02323052 -81.875 34.125 C-78.47320749 19.70639321 -70.56472272 8.12075339 -58.5 -0.5 C-41.08325617 -11.10013673 -17.14532659 -11.32630665 0 0 Z " fill="#1DAC96" transform="translate(226,121)"/>
<path d="M0 0 C1.42285156 1.72143555 1.42285156 1.72143555 2.890625 4.13671875 C3.43203125 5.0186792 3.9734375 5.90063965 4.53125 6.80932617 C5.0984375 7.75912354 5.665625 8.7089209 6.25 9.6875 C7.12398437 11.11896362 7.12398437 11.11896362 8.015625 12.5793457 C11.79382689 18.81749015 15.29492841 25.11518968 18.4375 31.69921875 C19.82437779 34.2082233 19.82437779 34.2082233 22.546875 34.99609375 C25 36 25 36 26.328125 38.4609375 C26.63234375 39.42257812 26.9365625 40.38421875 27.25 41.375 C27.72179687 42.80972656 27.72179687 42.80972656 28.203125 44.2734375 C32.12172497 57.68119621 31.84280845 73.08636905 25.83203125 85.76953125 C17.68187005 100.14092423 7.41549635 110.12407346 -8.625 114.8125 C-21.8115204 117.77861963 -36.18784937 117.04794135 -48.125 110.375 C-61.12513639 101.903001 -70.2502674 90.84539856 -75 76 C-75.58310087 72.94627914 -75.84426985 70.11460299 -76 67 C-68.23419373 66.62220402 -61.52757504 67.40358185 -54.00390625 69.33203125 C-50.19930797 70.17804725 -46.87630947 70.2280182 -43 70 C-43 68.35 -43 66.7 -43 65 C-46.93238055 62.55412256 -51.19603179 62.17511909 -55.6875 61.5 C-57.30752348 61.24102932 -58.92731906 60.98062868 -60.546875 60.71875 C-61.70413086 60.533125 -61.70413086 60.533125 -62.88476562 60.34375 C-73.83253273 58.56461149 -73.83253273 58.56461149 -77 55 C-73.47284874 51.28893768 -69.77390435 48.23256542 -65.5625 45.3125 C-64.32154321 44.43890346 -63.08065997 43.56520243 -61.83984375 42.69140625 C-61.20675293 42.24812988 -60.57366211 41.80485352 -59.92138672 41.34814453 C-56.81065623 39.16549476 -53.71737803 36.95854182 -50.625 34.75 C-50.03493164 34.32904053 -49.44486328 33.90808105 -48.83691406 33.47436523 C-45.18259804 30.86199513 -41.56788819 28.20563687 -37.98828125 25.4921875 C-34.5823414 22.93605975 -31.12376613 20.45207946 -27.67578125 17.953125 C-25.32903933 16.24017469 -23.00375286 14.50379758 -20.6875 12.75 C-17.53631763 10.37223156 -14.28500422 8.19000281 -11 6 C-8.93326739 4.40351821 -6.87445312 2.79936698 -4.83203125 1.171875 C-3 0 -3 0 0 0 Z " fill="#F6D528" transform="translate(326,271)"/>
<path d="M0 0 C2.0625 0.4375 2.0625 0.4375 4 1 C3.34 2.32 2.68 3.64 2 5 C2.67546875 4.72285156 3.3509375 4.44570312 4.046875 4.16015625 C4.93890625 3.79792969 5.8309375 3.43570313 6.75 3.0625 C7.63171875 2.70285156 8.5134375 2.34320313 9.421875 1.97265625 C19.65959409 -1.88975595 31.90790503 -0.72063461 42.00390625 3.15234375 C53.52704783 8.46505653 62.85039021 16.74876586 68.125 28.375 C68.62257813 29.45523438 69.12015625 30.53546875 69.6328125 31.6484375 C74.4096536 43.35852226 74.89489141 56.37148828 70.26171875 68.22265625 C64.26546876 81.42183193 57.64649154 88.83424603 45 96 C44.27683594 96.43828125 43.55367188 96.8765625 42.80859375 97.328125 C36.86079433 100.34990503 30.85303144 100.3795744 24.3125 100.4375 C22.95729248 100.4528479 22.95729248 100.4528479 21.57470703 100.46850586 C15.98544144 100.39484088 11.87947841 99.80429794 7 97 C5.171875 94.93359375 5.171875 94.93359375 3.75 92.4375 C3.18796875 91.47585938 2.6259375 90.51421875 2.046875 89.5234375 C1.73427734 88.97655273 1.42167969 88.42966797 1.09960938 87.86621094 C-0.18854449 85.6800102 -1.55101147 83.5493448 -2.921875 81.4140625 C-3.94811528 79.79700103 -4.97415663 78.1798133 -6 76.5625 C-6.75845215 75.39062134 -6.75845215 75.39062134 -7.53222656 74.19506836 C-7.9959668 73.45135986 -8.45970703 72.70765137 -8.9375 71.94140625 C-9.35902344 71.27826416 -9.78054688 70.61512207 -10.21484375 69.93188477 C-11.20877274 67.48631259 -11.010016 66.41457923 -10 64 C-7.3828125 61.74609375 -7.3828125 61.74609375 -4.125 59.4375 C0.89797303 56.20035968 0.89797303 56.20035968 5 52 C5.21041957 49.50477212 5.21041957 49.50477212 4 47 C1.40721656 44.54011535 1.40721656 44.54011535 -1.8125 42.375 C-2.87082031 41.61960938 -3.92914063 40.86421875 -5.01953125 40.0859375 C-6.78292272 38.85179458 -8.569984 37.64874157 -10.40234375 36.51953125 C-12 35 -12 35 -12.171875 32.73828125 C-12.03265625 31.93777344 -11.8934375 31.13726562 -11.75 30.3125 C-11.55664062 29.10013672 -11.55664062 29.10013672 -11.359375 27.86328125 C-11.18148438 26.94095703 -11.18148438 26.94095703 -11 26 C-12.32 25.34 -13.64 24.68 -15 24 C-15 23.34 -15 22.68 -15 22 C-14.34 22 -13.68 22 -13 22 C-12.34 20.68 -11.68 19.36 -11 18 C-11.99 17.01 -12.98 16.02 -14 15 C-13.67 14.34 -13.34 13.68 -13 13 C-10.74592956 15.05819533 -8.49672658 17.12131395 -6.25 19.1875 C-5.61578125 19.76564453 -4.9815625 20.34378906 -4.328125 20.93945312 C-0.89959028 24.10013357 2.20050526 27.24613205 5 31 C6.65 30.67 8.3 30.34 10 30 C10.39783798 27.67167255 10.39783798 27.67167255 10 25 C7.95926798 22.79092054 7.95926798 22.79092054 5.25 20.9375 C1.91361656 18.47423445 -1.23425479 16.10823235 -4 13 C-4 12.34 -4 11.68 -4 11 C-4.66 11 -5.32 11 -6 11 C-6 10.34 -6 9.68 -6 9 C-6.99 8.67 -7.98 8.34 -9 8 C-8.34 7.67 -7.68 7.34 -7 7 C-6.34 7.33 -5.68 7.66 -5 8 C-5 8.66 -5 9.32 -5 10 C-4.34 10 -3.68 10 -3 10 C-1.1261218 6.83783053 -0.90166642 4.63834261 -1 1 C-0.67 0.67 -0.34 0.34 0 0 Z " fill="#EB6336" transform="translate(343,200)"/>
<path d="M0 0 C3.49783938 2.87904098 5.32102502 6.12312386 7.375 10.125 C10.01203427 15.17742127 12.79619629 20.05920963 15.8359375 24.87890625 C16.98801357 26.97815896 17.71097768 28.62304061 18 31 C14.34858288 35.69467916 9.24266585 38.67866008 4.328125 41.9375 C1.88398028 43.82790502 1.88398028 43.82790502 0.859375 46.4375 C0.75967262 49.20697756 0.75967262 49.20697756 3.04296875 51.51171875 C6.06541729 54.05504731 9.13144094 56.47040157 12.3125 58.8125 C12.86228516 59.21919922 13.41207031 59.62589844 13.97851562 60.04492188 C15.31625547 61.03368611 16.65773623 62.01738585 18 63 C17.45509777 66.95771091 16.6353752 70.26016892 14.9375 73.875 C14.57527344 74.65617187 14.21304688 75.43734375 13.83984375 76.2421875 C13.42412109 77.11230469 13.42412109 77.11230469 13 78 C10.32543283 77.62207203 9.19388186 77.20233084 7.296875 75.22265625 C6.78640625 74.50980469 6.2759375 73.79695313 5.75 73.0625 C5.22921875 72.35222656 4.7084375 71.64195312 4.171875 70.91015625 C3 69 3 69 3 67 C1.02 67.33 -0.96 67.66 -3 68 C-2.47890774 72.3631755 -1.01361015 74.61852463 1.8125 77.9375 C10 87.80071813 10 87.80071813 10 91 C8.66666667 92.33333333 7.33333333 93.66666667 6 95 C5.505 96.485 5.505 96.485 5 98 C4.34 98 3.68 98 3 98 C2.67 97.01 2.34 96.02 2 95 C0.99066406 95.31324219 -0.01867187 95.62648438 -1.05859375 95.94921875 C-14.02991467 99.63251374 -27.72361196 98.438867 -39.75 92.375 C-51.94563749 85.10072433 -61.0497609 74.75059419 -65 61 C-68.61821646 44.23311034 -65.75653974 31.38192824 -57 17 C-50.14898331 6.91678807 -39.01314647 -0.18527252 -27.08984375 -2.5859375 C-18.04077057 -3.79858195 -8.46637078 -3.78795888 0 0 Z " fill="#28A3D9" transform="translate(150,203)"/>
<path d="M0 0 C7.30989876 5.18338275 13.57205397 10.83511124 19 18 C20.65 17.67 22.3 17.34 24 17 C24.20086443 13.28400809 24.1519437 12.22791555 22 9 C24.4375 9.375 24.4375 9.375 27 10 C28.40457737 12.80915474 28.24895157 14.88810534 28 18 C26.875 20.375 26.875 20.375 25 22 C21.8125 22.25 21.8125 22.25 19 22 C18.67 23.32 18.34 24.64 18 26 C18.66 26.33 19.32 26.66 20 27 C20 28.65 20 30.3 20 32 C20.66 32 21.32 32 22 32 C22.7230444 39.10993658 22.7230444 39.10993658 20.6640625 41.64453125 C19 43 19 43 16 45 C15.34 44.67 14.68 44.34 14 44 C14.845625 43.278125 15.69125 42.55625 16.5625 41.8125 C19.25646732 39.31967217 19.25646732 39.31967217 19.015625 36.61328125 C17.58421619 32.93015627 15.3933805 31.63113356 12.1875 29.375 C11.12917969 28.61960938 10.07085937 27.86421875 8.98046875 27.0859375 C7.21707728 25.85179458 5.430016 24.64874157 3.59765625 23.51953125 C2 22 2 22 1.828125 19.73828125 C1.96734375 18.93777344 2.1065625 18.13726562 2.25 17.3125 C2.44335938 16.10013672 2.44335938 16.10013672 2.640625 14.86328125 C2.75921875 14.24839844 2.8778125 13.63351563 3 13 C1.68 12.34 0.36 11.68 -1 11 C-1 10.34 -1 9.68 -1 9 C-0.34 9 0.32 9 1 9 C1.66 7.68 2.32 6.36 3 5 C2.2575 4.319375 2.2575 4.319375 1.5 3.625 C0 2 0 2 0 0 Z " fill="#E7673C" transform="translate(329,213)"/>
<path d="M0 0 C2.0625 0.4375 2.0625 0.4375 4 1 C3.34 2.32 2.68 3.64 2 5 C2.67546875 4.72285156 3.3509375 4.44570312 4.046875 4.16015625 C4.93890625 3.79792969 5.8309375 3.43570313 6.75 3.0625 C7.63171875 2.70285156 8.5134375 2.34320313 9.421875 1.97265625 C18.92311768 -1.61190349 29.30170258 -0.3811232 39 2 C39.66 2.33 40.32 2.66 41 3 C41 3.66 41 4.32 41 5 C41.66 5.33 42.32 5.66 43 6 C41.74509766 5.7834375 41.74509766 5.7834375 40.46484375 5.5625 C31.51330556 4.13501218 23.05168853 3.77180617 14 4 C14 4.66 14 5.32 14 6 C13.04287109 6.07347656 13.04287109 6.07347656 12.06640625 6.1484375 C11.24011719 6.22320312 10.41382813 6.29796875 9.5625 6.375 C8.73878906 6.44460937 7.91507812 6.51421875 7.06640625 6.5859375 C6.04353516 6.79089844 6.04353516 6.79089844 5 7 C4.67 7.66 4.34 8.32 4 9 C1.9375 9.625 1.9375 9.625 0 10 C0.33 11.32 0.66 12.64 1 14 C-0.65 13.67 -2.3 13.34 -4 13 C-4 12.34 -4 11.68 -4 11 C-4.66 11 -5.32 11 -6 11 C-6 10.34 -6 9.68 -6 9 C-6.99 8.67 -7.98 8.34 -9 8 C-8.34 7.67 -7.68 7.34 -7 7 C-6.34 7.33 -5.68 7.66 -5 8 C-5 8.66 -5 9.32 -5 10 C-4.34 10 -3.68 10 -3 10 C-1.1261218 6.83783053 -0.90166642 4.63834261 -1 1 C-0.67 0.67 -0.34 0.34 0 0 Z " fill="#DB6846" transform="translate(343,200)"/>
<path d="M0 0 C6.92307692 2 6.92307692 2 9 5 C9 6.32 9 7.64 9 9 C9.66 9 10.32 9 11 9 C10.05066101 12.35433109 9.10251165 15.69246505 8 19 C4.24723019 18.47878197 1.44656113 18.01115217 -1 15 C-1.02712552 12.69885175 -0.73064013 10.56782078 -0.36328125 8.296875 C0.0768345 5.51420769 0.07209424 2.8116752 0 0 Z " fill="#E4693F" transform="translate(332,220)"/>
<path d="M0 0 C1.421875 1.6796875 1.421875 1.6796875 2.75 3.875 C3.19859375 4.59429687 3.6471875 5.31359375 4.109375 6.0546875 C4.55023438 7.01761719 4.55023438 7.01761719 5 8 C4.67 8.66 4.34 9.32 4 10 C3.01 9.67 2.02 9.34 1 9 C0.505 7.515 0.505 7.515 0 6 C-3.07342403 6.07087561 -6.01131349 6.25149175 -9 7 C-10.80787306 9.37402417 -10.80787306 9.37402417 -12 12 C-14.4375 13.125 -14.4375 13.125 -17 14 C-17.70125 14.53625 -18.4025 15.0725 -19.125 15.625 C-21 17 -21 17 -24 17 C-24.04125 17.61875 -24.0825 18.2375 -24.125 18.875 C-24.41375 19.57625 -24.7025 20.2775 -25 21 C-26.423125 21.4640625 -26.423125 21.4640625 -27.875 21.9375 C-31.72365951 23.24604423 -32.10071101 24.54674728 -34 28 C-36.64417414 29.73523928 -37.78465943 30 -41 30 C-39.55129744 26.40939849 -37.83650235 24.91712533 -34.625 22.8125 C-29.56778077 19.4117033 -24.7089711 15.80290639 -19.859375 12.11328125 C-16.96592938 9.97481939 -13.99376373 7.99449939 -11 6 C-8.92359186 4.41451147 -6.87514168 2.79991566 -4.83203125 1.171875 C-3 0 -3 0 0 0 Z " fill="#A5912F" transform="translate(326,271)"/>
<path d="M0 0 C7.30989876 5.18338275 13.57205397 10.83511124 19 18 C20.65 17.67 22.3 17.34 24 17 C24.20086443 13.28400809 24.1519437 12.22791555 22 9 C24.4375 9.375 24.4375 9.375 27 10 C28.41441874 12.82883747 28.31900332 14.87376745 28 18 C26.4375 19.875 26.4375 19.875 24 21 C20.25 21.1875 20.25 21.1875 17 21 C17 20.34 17 19.68 17 19 C16.01 19 15.02 19 14 19 C14 19.66 14 20.32 14 21 C13.34 20.67 12.68 20.34 12 20 C12.66 18.68 13.32 17.36 14 16 C13.34 16 12.68 16 12 16 C11.6596875 14.8553125 11.6596875 14.8553125 11.3125 13.6875 C9.71777466 10.42211003 8.20130034 9.60065017 5 8 C4.34 7.67 3.68 7.34 3 7 C3 8.65 3 10.3 3 12 C1.68 11.67 0.36 11.34 -1 11 C-1 10.34 -1 9.68 -1 9 C-0.34 9 0.32 9 1 9 C1.66 7.68 2.32 6.36 3 5 C2.2575 4.319375 2.2575 4.319375 1.5 3.625 C0 2 0 2 0 0 Z " fill="#9B4830" transform="translate(329,213)"/>
<path d="M0 0 C1.32 0.33 2.64 0.66 4 1 C4 1.66 4 2.32 4 3 C5.134375 3.144375 6.26875 3.28875 7.4375 3.4375 C11 4 11 4 12 5 C11.90982004 7.19050021 11.75333792 9.378466 11.5625 11.5625 C11.46066406 12.76003906 11.35882813 13.95757812 11.25390625 15.19140625 C11.17011719 16.11824219 11.08632812 17.04507812 11 18 C9.02 17.34 7.04 16.68 5 16 C5 14.02 5 12.04 5 10 C4.34 10 3.68 10 3 10 C2.690625 8.906875 2.38125 7.81375 2.0625 6.6875 C1.41662103 4.44592006 0.7376883 2.2130649 0 0 Z " fill="#2CA5DD" transform="translate(152,260)"/>
<path d="M0 0 C0 0.33 0 0.66 0 1 C-0.99854004 0.98952637 -1.99708008 0.97905273 -3.02587891 0.96826172 C-6.7494749 0.93191542 -10.47305536 0.90904654 -14.19677734 0.89013672 C-15.80487713 0.88011237 -17.41295885 0.86648934 -19.02099609 0.84912109 C-21.33956376 0.82471512 -23.65788929 0.81348114 -25.9765625 0.8046875 C-27.04567368 0.78920364 -27.04567368 0.78920364 -28.13638306 0.77340698 C-32.50317855 0.77243726 -35.90706424 1.55646505 -40 3 C-40.66 2.67 -41.32 2.34 -42 2 C-29.60907981 -5.36757416 -13.19910916 -4.52540886 0 0 Z " fill="#6D506A" transform="translate(322,116)"/>
<path d="M0 0 C0.33 0 0.66 0 1 0 C0.85957123 1.64630328 0.71250671 3.29204179 0.5625 4.9375 C0.48128906 5.85402344 0.40007812 6.77054688 0.31640625 7.71484375 C0 10 0 10 -1 11 C-1.12953857 13.92817426 -1.18973134 16.82108226 -1.1875 19.75 C-1.18814453 20.60440674 -1.18878906 21.45881348 -1.18945312 22.33911133 C-1.13125949 29.38781589 -0.39150623 36.07974135 1 43 C-3.83103069 38.16896931 -4.5473537 29.50236006 -5.00390625 22.93359375 C-4.99320368 14.89596701 -3.6690804 7.17138442 0 0 Z " fill="#215D79" transform="translate(88,229)"/>
<path d="M0 0 C0.33 0 0.66 0 1 0 C1 7.59 1 15.18 1 23 C1.66 23 2.32 23 3 23 C6.44419134 32.41002278 6.44419134 32.41002278 6 37 C7.7015625 37.185625 7.7015625 37.185625 9.4375 37.375 C10.613125 37.58125 11.78875 37.7875 13 38 C13.33 38.66 13.66 39.32 14 40 C13.34 40.99 12.68 41.98 12 43 C11.6596875 42.0409375 11.6596875 42.0409375 11.3125 41.0625 C10.879375 40.381875 10.44625 39.70125 10 39 C9.19304687 38.88269531 8.38609375 38.76539063 7.5546875 38.64453125 C5 38 5 38 3.70703125 36.1015625 C-0.62452404 24.10939633 -2.19238192 12.60619602 0 0 Z " fill="#17554A" transform="translate(144,155)"/>
<path d="M0 0 C1.98 0.66 3.96 1.32 6 2 C6.33 3.98 6.66 5.96 7 8 C7.66 8 8.32 8 9 8 C9.33 8.99 9.66 9.98 10 11 C10.99 11 11.98 11 13 11 C13.5775 11.763125 14.155 12.52625 14.75 13.3125 C17.49094066 16.58640135 20.06687354 17.47045082 24 19 C26 21 26 21 26 23 C16.20656083 20.15256835 7.88686244 13.26628288 2 5 C0.5625 2 0.5625 2 0 0 Z " fill="#6D526B" transform="translate(151,360)"/>
<path d="M0 0 C0.5775 0.226875 1.155 0.45375 1.75 0.6875 C0.625 3.125 0.625 3.125 -1.25 5.6875 C-4.4375 6.5 -4.4375 6.5 -7.25 6.6875 C-6.92 8.0075 -6.59 9.3275 -6.25 10.6875 C-6.87648438 10.71328125 -7.50296875 10.7390625 -8.1484375 10.765625 C-8.96570313 10.82234375 -9.78296875 10.8790625 -10.625 10.9375 C-11.43710937 10.98390625 -12.24921875 11.0303125 -13.0859375 11.078125 C-15.43838927 11.4797092 -15.43838927 11.4797092 -16.5390625 13.734375 C-16.77367187 14.37890625 -17.00828125 15.0234375 -17.25 15.6875 C-17.25 15.0275 -17.25 14.3675 -17.25 13.6875 C-18.9 14.3475 -20.55 15.0075 -22.25 15.6875 C-17.55814605 10.51028185 -11.91835344 6.72546266 -6.25 2.6875 C-5.52425781 2.10613281 -4.79851562 1.52476562 -4.05078125 0.92578125 C-2.25 -0.3125 -2.25 -0.3125 0 0 Z " fill="#CAB234" transform="translate(278.25,305.3125)"/>
<path d="M0 0 C6.04656641 3.24890135 11.44727171 7.14172271 16.9375 11.25 C17.81212891 11.8996875 18.68675781 12.549375 19.58789062 13.21875 C21.72783516 14.80909129 23.86510126 16.40289531 26 18 C24 19 24 19 21.625 18.3125 C19 17 19 17 17.0625 14.875 C15.06121134 12.67018964 15.06121134 12.67018964 11.75 12.75 C10.8425 12.8325 9.935 12.915 9 13 C8.814375 12.236875 8.62875 11.47375 8.4375 10.6875 C6.43508383 6.94385237 3.84523396 6.53809358 0 5 C-0.33 4.01 -0.66 3.02 -1 2 C-0.67 1.34 -0.34 0.68 0 0 Z " fill="#745670" transform="translate(213,298)"/>
<path d="M0 0 C0 0.33 0 0.66 0 1 C-4.29 1 -8.58 1 -13 1 C-13 1.66 -13 2.32 -13 3 C-14.27875 3.309375 -15.5575 3.61875 -16.875 3.9375 C-19.10101675 4.47605244 -20.94739999 4.9737 -23 6 C-24.99960012 6.039992 -27.00047242 6.04346799 -29 6 C-29 6.66 -29 7.32 -29 8 C-33.95 9.485 -33.95 9.485 -39 11 C-33.89444326 4.73408945 -25.65538319 1.6022016 -17.87109375 0.26953125 C-11.92575812 -0.2886023 -5.96319292 -0.14311663 0 0 Z " fill="#195C4E" transform="translate(204,113)"/>
<path d="M0 0 C0 0.66 0 1.32 0 2 C-1.98 2.33 -3.96 2.66 -6 3 C-5.979375 3.78375 -5.95875 4.5675 -5.9375 5.375 C-6 8 -6 8 -7 10 C-7.61875 9.835 -8.2375 9.67 -8.875 9.5 C-10.96063386 8.92365356 -10.96063386 8.92365356 -13 9 C-13.639375 9.639375 -14.27875 10.27875 -14.9375 10.9375 C-19.37808866 13.92810053 -23.75108328 13.81615003 -29 14 C-26.95944729 11.95944729 -25.4499324 11.14592049 -22.859375 9.94140625 C-22.03566406 9.55533203 -21.21195312 9.16925781 -20.36328125 8.77148438 C-19.50089844 8.37251953 -18.63851563 7.97355469 -17.75 7.5625 C-16.05702657 6.77270342 -14.36431235 5.98235092 -12.671875 5.19140625 C-11.86814453 4.81773926 -11.06441406 4.44407227 -10.23632812 4.05908203 C-8.31166587 3.14759897 -6.41094158 2.18587478 -4.515625 1.21484375 C-2 0 -2 0 0 0 Z " fill="#7E5F7C" transform="translate(282,157)"/>
<path d="M0 0 C8.44646925 5.18678815 8.44646925 5.18678815 12 8 C11.43174347 13.54050113 9.37113483 18.03715966 7 23 C5.078125 22.62890625 5.078125 22.62890625 3 22 C1.75 19.9375 1.75 19.9375 1 18 C2.98 18.66 4.96 19.32 7 20 C7 15.71 7 11.42 7 7 C6.01 6.67 5.02 6.34 4 6 C4 5.34 4 4.68 4 4 C3.01 4 2.02 4 1 4 C0.67 2.68 0.34 1.36 0 0 Z " fill="#2A6F8B" transform="translate(156,258)"/>
<path d="M0 0 C5.59622164 8.39433246 5.00460987 20.3725023 3.39453125 29.9765625 C2.03294719 36.76374804 2.03294719 36.76374804 1 40 C0.01 40.495 0.01 40.495 -1 41 C-0.51679152 34.7945858 0.33318124 29.00054754 2 23 C1.67 23 1.34 23 1 23 C0.67 15.41 0.34 7.82 0 0 Z " fill="#684B64" transform="translate(353,149)"/>
<path d="M0 0 C0.66 0.33 1.32 0.66 2 1 C1.38125 1.7425 0.7625 2.485 0.125 3.25 C-1.99119395 5.77147691 -1.99119395 5.77147691 -2.9375 8.0625 C-4 10 -4 10 -6.5 11.875 C-9.48628877 14.41334546 -9.90048824 16.30878196 -11 20 C-12 21 -13 22 -14 23 C-15.13600854 25.29267178 -16.05597434 27.61745905 -17 30 C-18.39140128 25.82579615 -17.10211467 23.7771503 -15.43359375 19.828125 C-11.5957164 12.25694462 -6.20661565 5.74111947 0 0 Z " fill="#1B5F52" transform="translate(163,124)"/>
<path d="M0 0 C-1.32 0.33 -2.64 0.66 -4 1 C-3.67 2.98 -3.34 4.96 -3 7 C-3.66 7 -4.32 7 -5 7 C-5.12503906 7.71671875 -5.25007812 8.4334375 -5.37890625 9.171875 C-6.0023276 12.01059863 -6.86665027 14.55065049 -7.9375 17.25 C-8.27652344 18.12140625 -8.61554688 18.9928125 -8.96484375 19.890625 C-10 22 -10 22 -12 23 C-11.34 19.04 -10.68 15.08 -10 11 C-9.34 11 -8.68 11 -8 11 C-7.67 9.35 -7.34 7.7 -7 6 C-6.34 6 -5.68 6 -5 6 C-5 5.01 -5 4.02 -5 3 C-7.31 3.33 -9.62 3.66 -12 4 C-8.41084094 -0.78554541 -5.58334594 -0.37222306 0 0 Z " fill="#63484B" transform="translate(254,337)"/>
<path d="M0 0 C10.86741709 0.04808592 20.15812168 4.59378159 28 12 C24.25 13.125 24.25 13.125 22 12 C22 11.34 22 10.68 22 10 C21.34 10 20.68 10 20 10 C20 9.34 20 8.68 20 8 C18.906875 7.896875 17.81375 7.79375 16.6875 7.6875 C12.85493271 6.97295356 12.43778361 6.6594003 10 4 C7.39388923 3.27802838 7.39388923 3.27802838 5 3 C5 2.34 5 1.68 5 1 C3.35 1 1.7 1 0 1 C0 0.67 0 0.34 0 0 Z " fill="#1D695B" transform="translate(204,114)"/>
<path d="M0 0 C5.32221041 5.32221041 5.28626032 13.57423156 5.3125 20.6875 C5.31781738 21.3997876 5.32313477 22.1120752 5.32861328 22.84594727 C5.26617994 27.56404571 4.47451129 31.51772065 3 36 C2.08893953 32.91373245 1.90577005 30.21894989 1.97265625 27.0078125 C1.98490234 26.05519531 1.99714844 25.10257813 2.00976562 24.12109375 C2.04478569 22.13143516 2.08381681 20.14184293 2.12695312 18.15234375 C2.18665678 12.9475897 1.91505207 8.91154531 0 4 C0 2.68 0 1.36 0 0 Z " fill="#7B3522" transform="translate(411,230)"/>
<path d="M0 0 C2.98093122 2.5550839 4.52359755 5.38281401 6 9 C5.9140625 10.9296875 5.9140625 10.9296875 5 13 C2.6015625 15.10546875 2.6015625 15.10546875 -0.375 17.1875 C-1.35210937 17.88230469 -2.32921875 18.57710937 -3.3359375 19.29296875 C-6 21 -6 21 -9 22 C-9.33 20.35 -9.66 18.7 -10 17 C-8.68 17.33 -7.36 17.66 -6 18 C-6 17.34 -6 16.68 -6 16 C-4.68 16 -3.36 16 -2 16 C-2 15.01 -2 14.02 -2 13 C-0.02 12.67 1.96 12.34 4 12 C4 10.68 4 9.36 4 8 C3.01 8 2.02 8 1 8 C0.67 5.36 0.34 2.72 0 0 Z " fill="#297596" transform="translate(162,223)"/>
<path d="M0 0 C3.08089673 2.77280706 4.68775452 5.06326356 6 9 C5.360625 9.598125 4.72125 10.19625 4.0625 10.8125 C1.79689611 12.90810337 1.79689611 12.90810337 1 16 C0.34 16 -0.32 16 -1 16 C-1.33 15.01 -1.66 14.02 -2 13 C-4.31 13.33 -6.62 13.66 -9 14 C-9 13.34 -9 12.68 -9 12 C-5.14243493 9.84694043 -2.44870215 8.60746746 2 9 C1.67 8.2575 1.34 7.515 1 6.75 C0 4 0 4 0 0 Z " fill="#2F5772" transform="translate(154,285)"/>
<path d="M0 0 C0 0.33 0 0.66 0 1 C-0.58491211 1.01981934 -1.16982422 1.03963867 -1.77246094 1.06005859 C-4.43208025 1.15553481 -7.09093838 1.26512142 -9.75 1.375 C-10.67039062 1.4059375 -11.59078125 1.436875 -12.5390625 1.46875 C-13.42851562 1.50742188 -14.31796875 1.54609375 -15.234375 1.5859375 C-16.05131836 1.6173584 -16.86826172 1.6487793 -17.70996094 1.68115234 C-20.1830039 2.02548007 -21.79024131 2.87951974 -24 4 C-26.33203812 4.0777346 -28.66839059 4.08967728 -31 4 C-23.06100023 -3.27741646 -9.83111526 -1.7874755 0 0 Z " fill="#5B291C" transform="translate(378,201)"/>
<path d="M0 0 C4.28774542 8.33928669 5.46144582 15.57774466 5.3125 24.9375 C5.31572266 25.97712891 5.31894531 27.01675781 5.32226562 28.08789062 C5.26755509 35.73244491 5.26755509 35.73244491 3 38 C3.02094727 37.3201001 3.04189453 36.6402002 3.06347656 35.93969727 C3.14739895 32.81411953 3.1988991 29.68877984 3.25 26.5625 C3.28351563 25.49322266 3.31703125 24.42394531 3.3515625 23.32226562 C3.42870693 17.01570865 2.86695226 12.40986423 -0.15820312 6.82617188 C-1 5 -1 5 -0.75 1.9375 C-0.5025 1.298125 -0.255 0.65875 0 0 Z " fill="#877820" transform="translate(351,309)"/>
<path d="M0 0 C0.99 0.33 1.98 0.66 3 1 C3 2.65 3 4.3 3 6 C4.65 6.33 6.3 6.66 8 7 C7.484375 7.78375 6.96875 8.5675 6.4375 9.375 C5.963125 10.24125 5.48875 11.1075 5 12 C5.33 12.66 5.66 13.32 6 14 C3.08482708 12.92598892 1.22189824 12.22189824 -1 10 C-0.9765625 7.6171875 -0.9765625 7.6171875 -0.625 4.875 C-0.51414062 3.96492187 -0.40328125 3.05484375 -0.2890625 2.1171875 C-0.19367188 1.41851562 -0.09828125 0.71984375 0 0 Z " fill="#CD5D38" transform="translate(332,225)"/>
<path d="M0 0 C2.31 0 4.62 0 7 0 C2.07607343 4.92392657 -6.77902281 4.20054141 -13.375 4.25 C-14.40971436 4.26377686 -14.40971436 4.26377686 -15.46533203 4.27783203 C-19.4492049 4.25346286 -21.32569959 3.83715021 -25 2 C-16.75 2 -8.5 2 0 2 C0 1.34 0 0.68 0 0 Z " fill="#5B4258" transform="translate(209,383)"/>
<path d="M0 0 C0.66 0.99 1.32 1.98 2 3 C0.98589659 7.6559465 -1.05430432 10.73895949 -4.0625 14.375 C-5.13177734 15.68597656 -5.13177734 15.68597656 -6.22265625 17.0234375 C-6.80917969 17.67570312 -7.39570313 18.32796875 -8 19 C-8.33 19 -8.66 19 -9 19 C-9 17.02 -9 15.04 -9 13 C-8.01 12.67 -7.02 12.34 -6 12 C-6 11.34 -6 10.68 -6 10 C-5.01 9.34 -4.02 8.68 -3 8 C-2.27617533 5.94074861 -2.27617533 5.94074861 -2 4 C-1.34 4 -0.68 4 0 4 C0 2.68 0 1.36 0 0 Z " fill="#AD972F" transform="translate(349,353)"/>
<path d="M0 0 C20.96498906 1.07512764 20.96498906 1.07512764 26 3 C27.34765625 4.93359375 27.34765625 4.93359375 28 7 C27.125 9.25 27.125 9.25 26 11 C25.9175 10.38125 25.835 9.7625 25.75 9.125 C25.20517727 6.8671676 25.20517727 6.8671676 23.21704102 5.91601562 C21.01580909 5.00653185 19.12873207 4.55621654 16.77734375 4.21875 C15.59881836 4.03892578 15.59881836 4.03892578 14.39648438 3.85546875 C12.75333507 3.61793644 11.11010535 3.38095982 9.46679688 3.14453125 C8.68240234 3.02464844 7.89800781 2.90476562 7.08984375 2.78125 C6.37691162 2.67876953 5.66397949 2.57628906 4.92944336 2.47070312 C3 2 3 2 0 0 Z " fill="#877926" transform="translate(258,329)"/>
<path d="M0 0 C1.216875 -0.04125 2.43375 -0.0825 3.6875 -0.125 C4.71423828 -0.15980469 4.71423828 -0.15980469 5.76171875 -0.1953125 C8 0 8 0 10.1875 0.96875 C14.19227569 2.43716775 18.07731574 2.46455103 22.3125 2.625 C23.14845703 2.66367187 23.98441406 2.70234375 24.84570312 2.7421875 C26.89679259 2.83595159 28.94836515 2.91904245 31 3 C31 3.33 31 3.66 31 4 C20.75617852 5.19080838 11.946707 5.23018954 2 2 C1.34 1.34 0.68 0.68 0 0 Z " fill="#164F62" transform="translate(114,296)"/>
<path d="M0 0 C0.66 0.33 1.32 0.66 2 1 C2 4 2 4 1.25 5.875 C0.7321413 8.24994961 0.7321413 8.24994961 2.875 10.6875 C4.4143649 12.3659282 4.4143649 12.3659282 6 14 C6.04063832 15.66617115 6.042721 17.33388095 6 19 C1.92062227 15.52497453 -1.07590214 10.99035426 -3 6 C-2.66759924 2.9920456 -2.18217573 2.18217573 0 0 Z " fill="#92422A" transform="translate(335,262)"/>
<path d="M0 0 C-3.40351338 2.03219488 -6.3232927 2.36891039 -10.25 2.625 C-11.32765625 2.69976562 -12.4053125 2.77453125 -13.515625 2.8515625 C-14.33546875 2.90054688 -15.1553125 2.94953125 -16 3 C-16 3.66 -16 4.32 -16 5 C-17.81325551 4.88648483 -19.62563357 4.75887039 -21.4375 4.625 C-22.95150391 4.52058594 -22.95150391 4.52058594 -24.49609375 4.4140625 C-25.32238281 4.27742187 -26.14867187 4.14078125 -27 4 C-27.33 3.34 -27.66 2.68 -28 2 C-24.83402429 1.65988375 -21.6671312 1.32916813 -18.5 1 C-17.613125 0.90460938 -16.72625 0.80921875 -15.8125 0.7109375 C-10.50765526 0.16485054 -5.33262848 -0.0996753 0 0 Z " fill="#1D6659" transform="translate(246,172)"/>
<path d="M0 0 C2.31 0 4.62 0 7 0 C0.77292522 5.26906328 -5.71586102 5.31513924 -13.5 5.25 C-14.42425781 5.25773437 -15.34851563 5.26546875 -16.30078125 5.2734375 C-21.26528585 5.25923291 -25.34818059 4.95376415 -30 3 C-26.98968256 2.06576355 -26.13349732 1.95550089 -23 3 C-20.04555573 3.22427843 -17.08711128 3.18514538 -14.125 3.1875 C-13.32191406 3.19974609 -12.51882813 3.21199219 -11.69140625 3.22460938 C-7.33774351 3.23536801 -3.9650101 3.03066307 0 1 C0 0.67 0 0.34 0 0 Z " fill="#652718" transform="translate(381,295)"/>
<path d="M0 0 C6.75 2.875 6.75 2.875 9 4 C8.34 4.66 7.68 5.32 7 6 C7.33 6.66 7.66 7.32 8 8 C6.96939453 8.48919922 6.96939453 8.48919922 5.91796875 8.98828125 C4.56638672 9.64376953 4.56638672 9.64376953 3.1875 10.3125 C2.29417969 10.74175781 1.40085938 11.17101562 0.48046875 11.61328125 C-1.78931933 12.88221789 -3.29248171 14.06556898 -5 16 C-4.75 13.125 -4.75 13.125 -4 10 C-1.14088761 7.83101819 0.28443578 8 4 8 C2.88145414 4.27385847 2.88145414 4.27385847 0 2 C0 1.34 0 0.68 0 0 Z " fill="#735460" transform="translate(243,320)"/>
<path d="M0 0 C3.66443592 3.29220203 5.92210279 6.88608721 8.3125 11.125 C8.68439453 11.75792969 9.05628906 12.39085937 9.43945312 13.04296875 C10.36049248 14.65864672 11.18847911 16.32663135 12 18 C11.67 18.66 11.34 19.32 11 20 C10 19 9 18 8 17 C7.34 16.443125 6.68 15.88625 6 15.3125 C2.29915967 11.03340337 0.86404767 5.52990509 0 0 Z " fill="#9F8D2B" transform="translate(331,281)"/>
<path d="M0 0 C0.99 0.33 1.98 0.66 3 1 C1.17301482 8.30794072 -3.5395005 13.95953893 -9 19 C-9.66 18.67 -10.32 18.34 -11 18 C-10.67 16.35 -10.34 14.7 -10 13 C-9.030625 12.731875 -8.06125 12.46375 -7.0625 12.1875 C-6.051875 11.795625 -5.04125 11.40375 -4 11 C-3.67 10.01 -3.34 9.02 -3 8 C-2.34 8 -1.68 8 -1 8 C-1.020625 6.865625 -1.04125 5.73125 -1.0625 4.5625 C-1 1 -1 1 0 0 Z " fill="#843924" transform="translate(408,270)"/>
<path d="M0 0 C1.32 0.33 2.64 0.66 4 1 C1.94445995 2.48973986 -0.11850225 3.96665909 -2.1875 5.4375 C-2.76564453 5.85837891 -3.34378906 6.27925781 -3.93945312 6.71289062 C-7.2586204 9.05693531 -9.92961999 10.57839755 -14 11 C-13.2884375 10.38125 -13.2884375 10.38125 -12.5625 9.75 C-10.83733482 7.817815 -10.43415125 6.51807725 -10 4 C-10 4.66 -10 5.32 -10 6 C-9.34 6 -8.68 6 -8 6 C-8 5.01 -8 4.02 -8 3 C-6.865625 2.87625 -5.73125 2.7525 -4.5625 2.625 C-3.386875 2.41875 -2.21125 2.2125 -1 2 C-0.67 1.34 -0.34 0.68 0 0 Z " fill="#1C7160" transform="translate(188,218)"/>
<path d="M0 0 C0 0.66 0 1.32 0 2 C-0.99 2.66 -1.98 3.32 -3 4 C-4.20450304 6.55183404 -4.20450304 6.55183404 -5 9 C-9.455 8.01 -9.455 8.01 -14 7 C-12.16681844 3.45584899 -10.07395681 2.47189626 -6.4375 1.25 C-4.17421942 0.55131897 -2.36771523 0 0 0 Z " fill="#309FD1" transform="translate(116,205)"/>
<path d="M0 0 C1.98 0 3.96 0 6 0 C6.33 1.65 6.66 3.3 7 5 C8.65 5 10.3 5 12 5 C12 5.99 12 6.98 12 8 C12.99 7.67 13.98 7.34 15 7 C15.66 8.98 16.32 10.96 17 13 C12.98544787 11.26102321 9.67974734 8.60214985 6.25 5.9375 C5.64800781 5.47794922 5.04601562 5.01839844 4.42578125 4.54492188 C2.92968619 3.38977365 1.46204799 2.19794972 0 1 C0 0.67 0 0.34 0 0 Z " fill="#7C5E78" transform="translate(288,203)"/>
<path d="M0 0 C0.33 0.99 0.66 1.98 1 3 C1.66 3 2.32 3 3 3 C3 4.98 3 6.96 3 9 C1.62437146 7.71034824 0.29233607 6.37310707 -1 5 C-1 4.34 -1 3.68 -1 3 C-2.98 3.33 -4.96 3.66 -7 4 C-6.67 6.31 -6.34 8.62 -6 11 C-7.32 10.34 -8.64 9.68 -10 9 C-10.3125 6.75 -10.3125 6.75 -10 4 C-6.8072686 0.6248268 -4.63993968 -0.53027882 0 0 Z " fill="#216786" transform="translate(154,267)"/>
<path d="M0 0 C2 2 2 2 2 5 C1.01 5 0.02 5 -1 5 C-0.30888252 9.37707736 0.62009133 10.87098382 4.0625 13.6875 C6.58953879 16.70364308 6.70322182 19.14188361 7 23 C4.23751838 21.61875919 3.51288568 19.46868629 2.08984375 16.83203125 C0.9439097 14.76934799 0.9439097 14.76934799 -1.3125 12.4375 C-3 10 -3 10 -2.875 6.9375 C-2.12333396 4.41404973 -1.3118595 2.2738898 0 0 Z " fill="#7F5E78" transform="translate(169,280)"/>
<path d="M0 0 C3.30301909 0.30027446 5.45925649 0.58649025 8.125 2.625 C14 10.06666667 14 10.06666667 14 14 C13.01 14 12.02 14 11 14 C9.23537317 10.91190305 9 9.76687864 9 6 C8.34 6 7.68 6 7 6 C7 5.34 7 4.68 7 4 C4.03 3.505 4.03 3.505 1 3 C0.67 2.01 0.34 1.02 0 0 Z " fill="#22627C" transform="translate(144,202)"/>
<path d="M0 0 C5.50719921 3.90510489 10.35827355 8.09717644 15 13 C14.67 13.66 14.34 14.32 14 15 C13.113125 14.05125 12.22625 13.1025 11.3125 12.125 C8.73835425 9.53251117 6.56149285 8.0474979 3 7 C3 8.65 3 10.3 3 12 C1.68 11.67 0.36 11.34 -1 11 C-1 10.34 -1 9.68 -1 9 C-0.34 9 0.32 9 1 9 C1.66 7.68 2.32 6.36 3 5 C2.2575 4.319375 2.2575 4.319375 1.5 3.625 C0 2 0 2 0 0 Z " fill="#6E3324" transform="translate(329,213)"/>
<path d="M0 0 C1.32 0 2.64 0 4 0 C3.67 1.32 3.34 2.64 3 4 C5.31 3.34 7.62 2.68 10 2 C9.34 3.65 8.68 5.3 8 7 C9.32 7.66 10.64 8.32 12 9 C11.67 9.99 11.34 10.98 11 12 C9.491987 11.07544441 7.99375083 10.1349253 6.5 9.1875 C5.24703125 8.40439453 5.24703125 8.40439453 3.96875 7.60546875 C2.99421875 6.81076172 2.99421875 6.81076172 2 6 C2 5.01 2 4.02 2 3 C1.34 3 0.68 3 0 3 C0 2.01 0 1.02 0 0 Z " fill="#92678D" transform="translate(249,172)"/>
<path d="M0 0 C5.22498031 4.1388889 8.99299226 7.98598452 12 14 C10.625 15.5 10.625 15.5 9 17 C8.34 17 7.68 17 7 17 C6.34 15.02 5.68 13.04 5 11 C5.66 11 6.32 11 7 11 C7 10.34 7 9.68 7 9 C6.34 9 5.68 9 5 9 C3.07847184 6.11770776 1.53612181 3.09872847 0 0 Z " fill="#97677D" transform="translate(321,205)"/>
<path d="M0 0 C0.66 0.33 1.32 0.66 2 1 C1.21625 1.7425 0.4325 2.485 -0.375 3.25 C-2.62549503 5.60766146 -3.66693456 7.1434312 -5 10 C-5.515625 10.495 -6.03125 10.99 -6.5625 11.5 C-8.17084137 12.90452133 -8.17084137 12.90452133 -8.375 15 C-9 17 -9 17 -11.5625 18.75 C-12.366875 19.1625 -13.17125 19.575 -14 20 C-12.72956596 15.50764045 -11.10270496 12.45948257 -8.125 8.875 C-7.44695312 8.04742187 -6.76890625 7.21984375 -6.0703125 6.3671875 C-4.12808104 4.14644738 -2.113739 2.0568671 0 0 Z " fill="#6E516A" transform="translate(270,124)"/>
<path d="M0 0 C2.0625 0.4375 2.0625 0.4375 4 1 C3.34 2.32 2.68 3.64 2 5 C2.66 5.33 3.32 5.66 4 6 C3.175 6.391875 2.35 6.78375 1.5 7.1875 C0.675 7.785625 -0.15 8.38375 -1 9 C-1.41780879 11.62694422 -1.41780879 11.62694422 -1 14 C-1.99 13.67 -2.98 13.34 -4 13 C-4 12.34 -4 11.68 -4 11 C-4.66 11 -5.32 11 -6 11 C-6 10.34 -6 9.68 -6 9 C-6.99 8.67 -7.98 8.34 -9 8 C-8.34 7.67 -7.68 7.34 -7 7 C-6.34 7.33 -5.68 7.66 -5 8 C-5 8.66 -5 9.32 -5 10 C-4.34 10 -3.68 10 -3 10 C-1.1261218 6.83783053 -0.90166642 4.63834261 -1 1 C-0.67 0.67 -0.34 0.34 0 0 Z " fill="#7D4D56" transform="translate(343,200)"/>
<path d="M0 0 C-9.55650858 7.32744702 -9.55650858 7.32744702 -13 9 C-13.99 8.67 -14.98 8.34 -16 8 C-15.34 8 -14.68 8 -14 8 C-14.33 7.01 -14.66 6.02 -15 5 C-13.329375 4.87625 -13.329375 4.87625 -11.625 4.75 C-10.42875 4.5025 -9.2325 4.255 -8 4 C-6.6237206 2.08235826 -6.6237206 2.08235826 -6 0 C-3.50907189 -1.24546405 -2.58919267 -0.7767578 0 0 Z " fill="#7C5E78" transform="translate(232,374)"/>
<path d="M0 0 C5.02692063 0.45699278 8.14896261 2.99241748 12 6 C10 7 10 7 7.8359375 6.44140625 C7.02382812 6.15136719 6.21171875 5.86132812 5.375 5.5625 C4.55773437 5.27503906 3.74046875 4.98757813 2.8984375 4.69140625 C2.27195313 4.46324219 1.64546875 4.23507812 1 4 C1 4.66 1 5.32 1 6 C0.34 6 -0.32 6 -1 6 C-1 6.99 -1 7.98 -1 9 C-1.66 9 -2.32 9 -3 9 C-2.01 6.03 -1.02 3.06 0 0 Z " fill="#71536C" transform="translate(173,271)"/>
<path d="M0 0 C0 0.99 0 1.98 0 3 C0.66 3.33 1.32 3.66 2 4 C1.67 5.65 1.34 7.3 1 9 C-4.75 7.25 -4.75 7.25 -7 5 C-2.25 0 -2.25 0 0 0 Z " fill="#CAB132" transform="translate(256,321)"/>
<path d="M0 0 C1.32 0 2.64 0 4 0 C4 0.66 4 1.32 4 2 C15.385 2.99 15.385 2.99 27 4 C27 4.33 27 4.66 27 5 C7.99544419 5.55353075 7.99544419 5.55353075 0 2 C0 1.34 0 0.68 0 0 Z " fill="#CC6546" transform="translate(349,294)"/>
<path d="M0 0 C1.04692525 4.18770101 0.85469996 5.32171213 -0.4375 9.25 C-0.72496094 10.14203125 -1.01242188 11.0340625 -1.30859375 11.953125 C-1.53675781 12.62859375 -1.76492187 13.3040625 -2 14 C-1.01 14.33 -0.02 14.66 1 15 C-1.64 15.33 -4.28 15.66 -7 16 C-6.34 15.67 -5.68 15.34 -5 15 C-5 12.03 -5 9.06 -5 6 C-4.34 6.66 -3.68 7.32 -3 8 C-2.01 5.36 -1.02 2.72 0 0 Z " fill="#213838" transform="translate(253,148)"/>
<path d="M0 0 C0 4 0 4 -1.9375 6.1875 C-5.92625258 8.54819031 -9.43535342 8.80110472 -14 9 C-13.67 8.34 -13.34 7.68 -13 7 C-11.9171875 6.87625 -11.9171875 6.87625 -10.8125 6.75 C-7.2113814 5.78970171 -5.7639412 4.00441955 -3.33203125 1.27734375 C-2 0 -2 0 0 0 Z " fill="#82617F" transform="translate(228,356)"/>
<path d="M0 0 C1.37504799 2.75009598 0.6294275 3.96944052 -0.25 6.875 C-0.62898437 8.17050781 -0.62898437 8.17050781 -1.015625 9.4921875 C-2.03294102 12.08392116 -3.25344196 13.84831252 -5 16 C-5.66 16.99 -6.32 17.98 -7 19 C-6.67422369 11.83292123 -3.34556372 6.23072876 0 0 Z " fill="#765872" transform="translate(152,301)"/>
<path d="M0 0 C5.28 0 10.56 0 16 0 C13.26466565 1.82355623 11.67356087 2.51551683 8.5625 3.25 C7.41974609 3.53617187 7.41974609 3.53617187 6.25390625 3.828125 C3.56594541 4.03309948 2.27022699 3.38592445 0 2 C0 1.34 0 0.68 0 0 Z " fill="#C5AD34" transform="translate(307,383)"/>
<path d="M0 0 C5.83830459 3.08132742 8.77756105 7.36073184 12 13 C8.89990231 11.61761648 6.71736127 10.01421141 4.3125 7.625 C3.71050781 7.03976562 3.10851562 6.45453125 2.48828125 5.8515625 C0.89864987 3.87391086 0.4094574 2.4785821 0 0 Z " fill="#215E7D" transform="translate(92,277)"/>
<path d="M0 0 C0.99 0.33 1.98 0.66 3 1 C1.52202738 4.67056937 -0.47615477 6.41085783 -3.625 8.75 C-4.44226563 9.36359375 -5.25953125 9.9771875 -6.1015625 10.609375 C-6.72804687 11.06828125 -7.35453125 11.5271875 -8 12 C-8.66 11.67 -9.32 11.34 -10 11 C-8.42898506 7.85797013 -6.23027335 7.07675778 -3 6 C-3 5.01 -3 4.02 -3 3 C-2.01 3 -1.02 3 0 3 C0 2.01 0 1.02 0 0 Z " fill="#1E7865" transform="translate(239,179)"/>
<path d="M0 0 C2.4375 1.125 2.4375 1.125 5 3 C5.8125 6.1875 5.8125 6.1875 6 9 C6.99 9.33 7.98 9.66 9 10 C9.33 11.65 9.66 13.3 10 15 C5.81340142 11.17225273 2.62179138 7.05392126 0 2 C0 1.34 0 0.68 0 0 Z " fill="#97862B" transform="translate(255,355)"/>
<path d="M0 0 C1.43963569 4.31890708 0.30444307 7.71932764 -1 12 C-2.625 15.0625 -2.625 15.0625 -4 17 C-5.3609623 14.2780754 -4.70366248 12.8168043 -4.0625 9.875 C-3.86785156 8.96492188 -3.67320312 8.05484375 -3.47265625 7.1171875 C-3.31667969 6.41851562 -3.16070312 5.71984375 -3 5 C-2.34 5 -1.68 5 -1 5 C-0.67 3.35 -0.34 1.7 0 0 Z " fill="#7D5E79" transform="translate(247,343)"/>
<path d="M0 0 C2.97 0.495 2.97 0.495 6 1 C6.7230444 8.10993658 6.7230444 8.10993658 4.6640625 10.64453125 C3 12 3 12 0 14 C-0.66 13.67 -1.32 13.34 -2 13 C-1.154375 12.278125 -0.30875 11.55625 0.5625 10.8125 C3.30137805 8.28941137 3.30137805 8.28941137 2.9375 5.375 C2.01541649 2.79513045 2.01541649 2.79513045 0 0 Z " fill="#883C26" transform="translate(345,244)"/>
<path d="M0 0 C5.75 1.75 5.75 1.75 8 4 C9.98821313 4.39764263 11.98944339 4.73775349 14 5 C14.66 6.98 15.32 8.96 16 11 C12.58626364 9.497956 9.74394122 7.42566503 6.75 5.23828125 C5.23737597 4.16796469 3.65441516 3.19837499 2.0625 2.25 C1.381875 1.8375 0.70125 1.425 0 1 C0 0.67 0 0.34 0 0 Z " fill="#694E65" transform="translate(305,216)"/>
<path d="M0 0 C2.64 0 5.28 0 8 0 C4.87378374 3.39417765 2.43458973 5.6062718 -2 7 C-1.34 4.69 -0.68 2.38 0 0 Z " fill="#218270" transform="translate(206,202)"/>
<path d="M0 0 C2.76460846 1.38230423 2.99120861 2.91132229 4.125 5.75 C4.47820312 6.61109375 4.83140625 7.4721875 5.1953125 8.359375 C6.01786806 11.05863498 6.15123996 13.19701945 6 16 C2.84823674 14.42411837 2.32171428 12.21808695 1 9 C0.4835272 6.00835565 0.19516511 3.02842415 0 0 Z " fill="#257B6A" transform="translate(242,140)"/>
<path d="M0 0 C0.86625 0.3403125 0.86625 0.3403125 1.75 0.6875 C0.625 3.125 0.625 3.125 -1.25 5.6875 C-4.4375 6.5 -4.4375 6.5 -7.25 6.6875 C-6.87492618 3.96821483 -6.40781339 2.84531339 -4.4375 0.875 C-2.25 -0.3125 -2.25 -0.3125 0 0 Z " fill="#CBB333" transform="translate(278.25,305.3125)"/>
<path d="M0 0 C0.93423645 3.01031744 1.04449911 3.86650268 0 7 C-0.99 7.33 -1.98 7.66 -3 8 C-4.5625 6.75 -4.5625 6.75 -6 5 C-5.6875 2.8125 -5.6875 2.8125 -5 1 C-3.35 0.67 -1.7 0.34 0 0 Z " fill="#936D90" transform="translate(174,303)"/>
<path d="M0 0 C0.886875 0.61875 1.77375 1.2375 2.6875 1.875 C5.46061184 3.65397741 7.9140354 4.91083602 11 6 C8 8 8 8 5 8 C5 7.34 5 6.68 5 6 C4.01 6 3.02 6 2 6 C2 6.66 2 7.32 2 8 C1.34 7.67 0.68 7.34 0 7 C0.66 5.68 1.32 4.36 2 3 C1.34 3 0.68 3 0 3 C0 2.01 0 1.02 0 0 Z " fill="#B05135" transform="translate(341,226)"/>
<path d="M0 0 C6.48292295 -0.3669579 6.48292295 -0.3669579 8.9375 1.375 C10 3 10 3 10 5 C8.35 5.33 6.7 5.66 5 6 C3.35 4.02 1.7 2.04 0 0 Z " fill="#946D91" transform="translate(328,201)"/>
<path d="M0 0 C0.99 0.33 1.98 0.66 3 1 C2.67 2.65 2.34 4.3 2 6 C2.99 6.33 3.98 6.66 5 7 C5.625 9.375 5.625 9.375 6 12 C5.34 12.66 4.68 13.32 4 14 C3.32471777 12.42032193 2.66010306 10.83608097 2 9.25 C1.62875 8.36828125 1.2575 7.4865625 0.875 6.578125 C0 4 0 4 0 0 Z " fill="#785974" transform="translate(144,342)"/>
<path d="M0 0 C0.33 0.66 0.66 1.32 1 2 C-0.3692856 5.57535683 -1.48711166 7.61220637 -4.5625 9.9375 C-5.366875 10.288125 -6.17125 10.63875 -7 11 C-7.66 10.67 -8.32 10.34 -9 10 C-6.03 6.7 -3.06 3.4 0 0 Z " fill="#755A74" transform="translate(241,341)"/>
<path d="M0 0 C0.66 0 1.32 0 2 0 C2.33 1.32 2.66 2.64 3 4 C0.69 5.65 -1.62 7.3 -4 9 C-4.66 8.67 -5.32 8.34 -6 8 C-3.25 4.125 -3.25 4.125 -1 3 C-0.67 2.01 -0.34 1.02 0 0 Z " fill="#A54C31" transform="translate(394,286)"/>
<path d="M0 0 C1 3 1 3 -0.4375 6.1875 C-1.2109375 7.5796875 -1.2109375 7.5796875 -2 9 C-3.875 8.75 -3.875 8.75 -6 8 C-7.25 5.9375 -7.25 5.9375 -8 4 C-6.02 4.66 -4.04 5.32 -2 6 C-2 4.35 -2 2.7 -2 1 C-1.34 0.67 -0.68 0.34 0 0 Z " fill="#235B71" transform="translate(165,272)"/>
<path d="M0 0 C1.65 0 3.3 0 5 0 C5.33 0.66 5.66 1.32 6 2 C4.68 2 3.36 2 2 2 C2.33 2.66 2.66 3.32 3 4 C3.13415472 6.6723621 3.04318541 9.32250488 3 12 C0.97649676 8.96474514 0.67875982 7.80573798 0.375 4.3125 C0.30023438 3.50425781 0.22546875 2.69601562 0.1484375 1.86328125 C0.09945312 1.24839844 0.05046875 0.63351562 0 0 Z " fill="#CFBC42" transform="translate(250,338)"/>
<path d="M0 0 C1.32 0.33 2.64 0.66 4 1 C4 2.65 4 4.3 4 6 C4.66 6 5.32 6 6 6 C6 6.99 6 7.98 6 9 C6.66 9 7.32 9 8 9 C7.67 10.32 7.34 11.64 7 13 C5.82786955 11.21190303 4.66244474 9.41940875 3.5 7.625 C2.8503125 6.62726563 2.200625 5.62953125 1.53125 4.6015625 C0 2 0 2 0 0 Z " fill="#8C3F29" transform="translate(341,281)"/>
<path d="M0 0 C-3.5087188 3.09592835 -6.49197399 4.74194623 -11 6 C-11 5.01 -11 4.02 -11 3 C-10.34 3 -9.68 3 -9 3 C-9 2.34 -9 1.68 -9 1 C-5.92677456 0.08941469 -3.19902639 -0.08886184 0 0 Z " fill="#81627E" transform="translate(279,150)"/>
<path d="M0 0 C0.66 0 1.32 0 2 0 C1.50769231 5.53846154 1.50769231 5.53846154 -1.0625 7.875 C-2.0215625 8.431875 -2.0215625 8.431875 -3 9 C-3 7.02 -3 5.04 -3 3 C-2.01 2.67 -1.02 2.34 0 2 C0 1.34 0 0.68 0 0 Z " fill="#C1AA30" transform="translate(343,363)"/>
<path d="M0 0 C0.8971875 0.309375 0.8971875 0.309375 1.8125 0.625 C-0.20791177 3.65561766 -0.94435563 4.34739767 -4.1875 5.625 C-5.1775 5.625 -6.1675 5.625 -7.1875 5.625 C-5.69046729 2.17030914 -4.27938051 -0.73360809 0 0 Z " fill="#BAA432" transform="translate(292.1875,295.375)"/>
<path d="M0 0 C0 0.66 0 1.32 0 2 C0.66 2.33 1.32 2.66 2 3 C-2.62 2.34 -7.24 1.68 -12 1 C-12 0.67 -12 0.34 -12 0 C-7.66726186 -0.92844389 -4.33273814 -0.92844389 0 0 Z " fill="#B8543A" transform="translate(384,203)"/>
<path d="M0 0 C6.75 2.75 6.75 2.75 9 5 C9 5.66 9 6.32 9 7 C5.59687262 5.94124926 2.98646769 4.99097846 0 3 C0 2.01 0 1.02 0 0 Z " fill="#886583" transform="translate(168,376)"/>
<path d="M0 0 C-0.33 2.31 -0.66 4.62 -1 7 C-2.9375 6.25 -2.9375 6.25 -5 5 C-5.75 2.875 -5.75 2.875 -6 1 C-3.92446352 0.4465236 -2.15634036 0 0 0 Z " fill="#297FAA" transform="translate(95,271)"/>
<path d="M0 0 C2.98093122 2.5550839 4.52359755 5.38281401 6 9 C5.6875 11.375 5.6875 11.375 5 13 C4.34 12.67 3.68 12.34 3 12 C3.33 10.68 3.66 9.36 4 8 C3.01 8 2.02 8 1 8 C0.67 5.36 0.34 2.72 0 0 Z " fill="#1E556E" transform="translate(162,223)"/>
<path d="M0 0 C3.29148243 1.13499394 3.9959869 1.99283376 5.75 5.125 C6.1625 6.07375 6.575 7.0225 7 8 C6.01 9.485 6.01 9.485 5 11 C4.16151196 9.54462432 3.32936066 8.08559627 2.5 6.625 C1.80390625 5.40683594 1.80390625 5.40683594 1.09375 4.1640625 C0 2 0 2 0 0 Z " fill="#1E6F62" transform="translate(160,203)"/>
<path d="M0 0 C0.66 0 1.32 0 2 0 C2 0.99 2 1.98 2 3 C1.34 3 0.68 3 0 3 C-0.103125 3.763125 -0.20625 4.52625 -0.3125 5.3125 C-1.04364039 8.17059424 -1.76951913 9.15742885 -4 11 C-4.33 10.34 -4.66 9.68 -5 9 C-4.00390625 6.8359375 -4.00390625 6.8359375 -2.5625 4.375 C-2.08941406 3.55773437 -1.61632812 2.74046875 -1.12890625 1.8984375 C-0.75636719 1.27195313 -0.38382812 0.64546875 0 0 Z " fill="#21627D" transform="translate(94,218)"/>
<path d="M0 0 C2.96175123 0.61277612 4.38058783 1.25372522 7 3 C8.1875 5.625 8.1875 5.625 9 8 C5.18284914 6.44486447 2.77292558 4.00400272 0 1 C0 0.67 0 0.34 0 0 Z " fill="#863C28" transform="translate(342,214)"/>
<path d="M0 0 C1.98 0.66 3.96 1.32 6 2 C6.33 3.98 6.66 5.96 7 8 C6.67 7.34 6.34 6.68 6 6 C5.360625 5.896875 4.72125 5.79375 4.0625 5.6875 C3.381875 5.460625 2.70125 5.23375 2 5 C0.75 2.4375 0.75 2.4375 0 0 Z " fill="#906E8C" transform="translate(151,360)"/>
<path d="M0 0 C1.98 0 3.96 0 6 0 C7.125 1.75 7.125 1.75 8 4 C7.125 6.25 7.125 6.25 6 8 C5.9071875 7.1028125 5.9071875 7.1028125 5.8125 6.1875 C4.67894758 3.13562809 2.79112005 2.5029108 0 1 C0 0.67 0 0.34 0 0 Z " fill="#A28E2D" transform="translate(278,332)"/>
<path d="M0 0 C4.92127034 -0.16682272 8.50343896 -0.24828052 13 2 C13 2.33 13 2.66 13 3 C8.07872966 3.16682272 4.49656104 3.24828052 0 1 C0 0.67 0 0.34 0 0 Z " fill="#2B7092" transform="translate(114,296)"/>
<path d="M0 0 C-3.60957611 3.2910841 -6.12637153 4.54663921 -11 5 C-11 4.34 -11 3.68 -11 3 C-7.14243493 0.84694043 -4.44870215 -0.39253254 0 0 Z " fill="#307C9C" transform="translate(156,294)"/>
<path d="M0 0 C0.33 0 0.66 0 1 0 C0.67 3.3 0.34 6.6 0 10 C-0.99 10.33 -1.98 10.66 -3 11 C-2.44894091 7.0507432 -1.61064629 3.65079826 0 0 Z " fill="#226583" transform="translate(88,229)"/>
<path d="M0 0 C0.33 0.66 0.66 1.32 1 2 C3.02463255 2.65213292 3.02463255 2.65213292 5 3 C4.360625 3.2475 3.72125 3.495 3.0625 3.75 C0.81258459 4.81562433 0.81258459 4.81562433 0.25 7.125 C0.1675 7.74375 0.085 8.3625 0 9 C-0.99 8.34 -1.98 7.68 -3 7 C-1.125 2.25 -1.125 2.25 0 0 Z " fill="#755672" transform="translate(318,194)"/>
<path d="M0 0 C4.28477792 2.30718811 7.72291137 4.32966073 11 8 C6.19827866 6.89191046 3.08838665 5.95313492 0 2 C0 1.34 0 0.68 0 0 Z " fill="#5C3F58" transform="translate(228,309)"/>
<path d="M0 0 C-3.69172595 3.53790403 -7.09390595 3.59115883 -12 4 C-9.57836922 -0.84326157 -4.82936706 -0.18574489 0 0 Z " fill="#8F422C" transform="translate(388,295)"/>
<path d="M0 0 C1.875 0.1875 1.875 0.1875 4 1 C5.25 3.5625 5.25 3.5625 6 6 C3.69 5.01 1.38 4.02 -1 3 C-1 3.66 -1 4.32 -1 5 C-1.66 4.67 -2.32 4.34 -3 4 C-2.01 2.68 -1.02 1.36 0 0 Z " fill="#876B8A" transform="translate(158,294)"/>
<path d="M0 0 C4.1666604 0.47348414 6.92884715 1.04696841 10 4 C10 4.66 10 5.32 10 6 C5.56909529 4.79157144 3.01887244 3.48331435 0 0 Z " fill="#246481" transform="translate(104,290)"/>
<path d="M0 0 C0.103125 0.639375 0.20625 1.27875 0.3125 1.9375 C0.539375 2.618125 0.76625 3.29875 1 4 C1.99 4.33 2.98 4.66 4 5 C5.1875 7.5625 5.1875 7.5625 6 10 C3.08482708 8.92598892 1.22189824 8.22189824 -1 6 C-0.625 2.875 -0.625 2.875 0 0 Z " fill="#6B2E1D" transform="translate(332,229)"/>
<path d="M0 0 C6.52307692 1.35384615 6.52307692 1.35384615 8.9375 4.625 C9.288125 5.40875 9.63875 6.1925 10 7 C5.56541027 5.6062718 3.12621626 3.39417765 0 0 Z " fill="#70546D" transform="translate(271,191)"/>
<path d="M0 0 C0.66 0 1.32 0 2 0 C2.52992692 1.45505358 3.0486789 2.91418127 3.5625 4.375 C3.85253906 5.18710938 4.14257812 5.99921875 4.44140625 6.8359375 C5 9 5 9 4 11 C3.34 11 2.68 11 2 11 C1.34 7.37 0.68 3.74 0 0 Z " fill="#24826E" transform="translate(145,178)"/>
<path d="M0 0 C0 3 0 3 -1.3125 4.38671875 C-2.875 5.59114583 -4.4375 6.79557292 -6 8 C-5.8125 5.6875 -5.8125 5.6875 -5 3 C-2.4375 1.1875 -2.4375 1.1875 0 0 Z " fill="#71506D" transform="translate(238,365)"/>
<path d="M0 0 C0.66 0.33 1.32 0.66 2 1 C1.38125 1.2475 0.7625 1.495 0.125 1.75 C-2.35068687 3.20628639 -2.95125002 4.37812506 -4 7 C-4.99 7 -5.98 7 -7 7 C-5.55609075 3.19333016 -3.65047197 1.73397418 0 0 Z " fill="#A27A9D" transform="translate(235,350)"/>
<path d="M0 0 C0 0.99 0 1.98 0 3 C-1.32 3 -2.64 3 -4 3 C-4.66 3.66 -5.32 4.32 -6 5 C-6.66 4.34 -7.32 3.68 -8 3 C-6.14481495 -0.71037009 -3.79223618 -1.26407873 0 0 Z " fill="#B383AE" transform="translate(249,340)"/>
<path d="M0 0 C-0.33 0.66 -0.66 1.32 -1 2 C-4.47325181 3.1577506 -7.36067448 3.06866652 -11 3 C-7.48550811 -0.37391222 -4.73940561 -0.27342725 0 0 Z " fill="#90432D" transform="translate(358,202)"/>
<path d="M0 0 C3.55780196 0.60990891 6.6828589 1.5783681 10 3 C8.02 3.99 8.02 3.99 6 5 C3.98079663 3.69593116 1.98075027 2.36176581 0 1 C0 0.67 0 0.34 0 0 Z " fill="#A18F2E" transform="translate(272,376)"/>
<path d="M0 0 C4.75 0.75 4.75 0.75 7 3 C7 3.99 7 4.98 7 6 C3.63279613 4.60667426 2.0140476 3.0210714 0 0 Z " fill="#A08C2D" transform="translate(265,370)"/>
<path d="M0 0 C1.98 0.66 3.96 1.32 6 2 C6.33 4.64 6.66 7.28 7 10 C4.60743494 8.80371747 4.20156622 7.87434735 2.9375 5.5625 C2.59589844 4.94503906 2.25429687 4.32757813 1.90234375 3.69140625 C1.25078447 2.47008518 0.61905648 1.23811297 0 0 Z " fill="#654A62" transform="translate(169,293)"/>
<path d="M0 0 C4.10958767 1.45044271 7.43258745 3.51110752 11 6 C8 7 8 7 5.95703125 6.07421875 C4.89548828 5.38779297 4.89548828 5.38779297 3.8125 4.6875 C3.09707031 4.23761719 2.38164062 3.78773438 1.64453125 3.32421875 C1.10183594 2.88722656 0.55914062 2.45023438 0 2 C0 1.34 0 0.68 0 0 Z " fill="#B38DB0" transform="translate(305,214)"/>
<path d="M0 0 C1.32 0 2.64 0 4 0 C3.67 1.32 3.34 2.64 3 4 C1.02 4 -0.96 4 -3 4 C-1.75 2 -1.75 2 0 0 Z " fill="#257393" transform="translate(105,208)"/>
<path d="M0 0 C0.33 0.66 0.66 1.32 1 2 C0.22265625 3.7265625 0.22265625 3.7265625 -0.9375 5.625 C-1.618125 6.73875 -2.29875 7.8525 -3 9 C-3.33 9 -3.66 9 -4 9 C-4.25 6.1875 -4.25 6.1875 -4 3 C-2 1.125 -2 1.125 0 0 Z " fill="#7B5A77" transform="translate(351,191)"/>
<path d="M0 0 C0 0.66 0 1.32 0 2 C-0.66 2 -1.32 2 -2 2 C-2.66 3.32 -3.32 4.64 -4 6 C-5.32 5.34 -6.64 4.68 -8 4 C-2.25 0 -2.25 0 0 0 Z " fill="#70566B" transform="translate(280,119)"/>
<path d="M0 0 C2.0625 0.4375 2.0625 0.4375 4 1 C3.34 2.98 2.68 4.96 2 7 C1.01 6.67 0.02 6.34 -1 6 C-1.042721 4.33388095 -1.04063832 2.66617115 -1 1 C-0.67 0.67 -0.34 0.34 0 0 Z " fill="#664B64" transform="translate(212,356)"/>
<path d="M0 0 C0 0.99 0 1.98 0 3 C-1.98 3.33 -3.96 3.66 -6 4 C-6 2.68 -6 1.36 -6 0 C-3.50907189 -1.24546405 -2.58919267 -0.7767578 0 0 Z " fill="#C28CBF" transform="translate(247,325)"/>
<path d="M0 0 C1.32 0.33 2.64 0.66 4 1 C1.03 3.475 1.03 3.475 -2 6 C-2.66 5.67 -3.32 5.34 -4 5 C-2.68 3.35 -1.36 1.7 0 0 Z " fill="#C6AD3B" transform="translate(307,282)"/>
<path d="M0 0 C0.66 0.33 1.32 0.66 2 1 C0.02 3.97 0.02 3.97 -2 7 C-3.65 6.67 -5.3 6.34 -7 6 C-6.21625 5.38125 -5.4325 4.7625 -4.625 4.125 C-2.03162353 2.10141339 -2.03162353 2.10141339 0 0 Z " fill="#A3902B" transform="translate(316,276)"/>
<path d="M0 0 C1.31618998 0.78551657 2.62785228 1.5786237 3.9375 2.375 C4.66839844 2.81585938 5.39929688 3.25671875 6.15234375 3.7109375 C8 5 8 5 9 7 C7.35 6.67 5.7 6.34 4 6 C4 5.34 4 4.68 4 4 C3.01 4 2.02 4 1 4 C0.67 2.68 0.34 1.36 0 0 Z " fill="#1F5C74" transform="translate(156,258)"/>
<path d="M0 0 C2.51699845 2.51699845 3.10964078 4.57554146 4 8 C3.625 10.375 3.625 10.375 3 12 C0.97649676 8.96474514 0.67875982 7.80573798 0.375 4.3125 C0.30023438 3.50425781 0.22546875 2.69601563 0.1484375 1.86328125 C0.09945313 1.24839844 0.05046875 0.63351563 0 0 Z " fill="#6F2E1C" transform="translate(411,230)"/>
<path d="M0 0 C1.32 0 2.64 0 4 0 C4 1.32 4 2.64 4 4 C4.66 4.33 5.32 4.66 6 5 C6 5.66 6 6.32 6 7 C4.68 6.67 3.36 6.34 2 6 C2 5.01 2 4.02 2 3 C1.34 3 0.68 3 0 3 C0 2.01 0 1.02 0 0 Z " fill="#747387" transform="translate(249,172)"/>
<path d="M0 0 C2.31 0 4.62 0 7 0 C4.13700494 2.86299506 2.34147716 2.99421225 -1.6875 3.0625 C-2.780625 3.041875 -3.87375 3.02125 -5 3 C-5 2.67 -5 2.34 -5 2 C-3.35 2 -1.7 2 0 2 C0 1.34 0 0.68 0 0 Z " fill="#654A60" transform="translate(209,383)"/>
<path d="M0 0 C0 3 0 3 -1 5 C-2.65 5 -4.3 5 -6 5 C-5.25 3.0625 -5.25 3.0625 -4 1 C-1.875 0.25 -1.875 0.25 0 0 Z " fill="#956F90" transform="translate(241,360)"/>
<path d="M0 0 C1.65 0 3.3 0 5 0 C5 1.32 5 2.64 5 4 C3.35 4 1.7 4 0 4 C0 2.68 0 1.36 0 0 Z " fill="#966E92" transform="translate(222,307)"/>
<path d="M0 0 C4.875 1.75 4.875 1.75 6 4 C3.69 4.33 1.38 4.66 -1 5 C-0.67 3.35 -0.34 1.7 0 0 Z " fill="#AB7FA9" transform="translate(160,298)"/>
<path d="M0 0 C0.33 0 0.66 0 1 0 C1 1.65 1 3.3 1 5 C0.34 5 -0.32 5 -1 5 C-1.12375 5.639375 -1.2475 6.27875 -1.375 6.9375 C-1.58125 7.618125 -1.7875 8.29875 -2 9 C-2.99 9.495 -2.99 9.495 -4 10 C-3.52449439 8.51965236 -3.04448784 7.04074979 -2.5625 5.5625 C-2.29566406 4.73878906 -2.02882813 3.91507812 -1.75390625 3.06640625 C-1 1 -1 1 0 0 Z " fill="#DE693F" transform="translate(406,273)"/>
<path d="M0 0 C2.97 0.495 2.97 0.495 6 1 C6.33 1.99 6.66 2.98 7 4 C4.03 3.505 4.03 3.505 1 3 C0.67 2.01 0.34 1.02 0 0 Z " fill="#2A6884" transform="translate(144,202)"/>
<path d="M0 0 C0.33 0.66 0.66 1.32 1 2 C2.32 1.67 3.64 1.34 5 1 C4.67 2.65 4.34 4.3 4 6 C2.0625 5.1875 2.0625 5.1875 0 4 C-0.33 3.01 -0.66 2.02 -1 1 C-0.67 0.67 -0.34 0.34 0 0 Z " fill="#956E93" transform="translate(281,195)"/>
<path d="M0 0 C0.66 0.33 1.32 0.66 2 1 C1.34 2.65 0.68 4.3 0 6 C-0.33 5.34 -0.66 4.68 -1 4 C-2.65 4.66 -4.3 5.32 -6 6 C-4 4 -2 2 0 0 Z " fill="#A48E2B" transform="translate(262,315)"/>
<path d="M0 0 C2.97 0.495 2.97 0.495 6 1 C6.33 2.32 6.66 3.64 7 5 C4.11562221 3.70700306 2.12780579 2.34058637 0 0 Z " fill="#883F27" transform="translate(338,239)"/>
<path d="M0 0 C0.33 0 0.66 0 1 0 C1 2.64 1 5.28 1 8 C-0.32 8 -1.64 8 -3 8 C-2.5359375 7.13375 -2.5359375 7.13375 -2.0625 6.25 C-1.07416636 4.15705816 -0.4831387 2.25464725 0 0 Z " fill="#DDC644" transform="translate(285,336)"/>
<path d="M0 0 C2.79872437 2.52788007 4.45773019 4.20411134 5 8 C2 7 2 7 0 4 C0 2.68 0 1.36 0 0 Z " fill="#867623" transform="translate(331,281)"/>
<path d="M0 0 C1.98 0.495 1.98 0.495 4 1 C2.515 3.475 2.515 3.475 1 6 C0.34 5.67 -0.32 5.34 -1 5 C-0.67 3.35 -0.34 1.7 0 0 Z " fill="#A74D30" transform="translate(398,283)"/>
<path d="M0 0 C1.485 0.99 1.485 0.99 3 2 C2.01 3.485 2.01 3.485 1 5 C0.83286431 7.62531524 0.83286431 7.62531524 1 10 C0.34 9.67 -0.32 9.34 -1 9 C-1.125 2.25 -1.125 2.25 0 0 Z " fill="#19617E" transform="translate(150,244)"/>
<path d="M0 0 C0.66 0.33 1.32 0.66 2 1 C2.73075648 3.3140622 3.40138258 5.64828869 4 8 C3.01 8.33 2.02 8.66 1 9 C1 6.69 1 4.38 1 2 C0.34 1.67 -0.32 1.34 -1 1 C-0.67 0.67 -0.34 0.34 0 0 Z " fill="#279481" transform="translate(172,219)"/>
<path d="M0 0 C3 3.75 3 3.75 3 6 C-0.16115776 4.63016497 -0.9927092 4.0109362 -3 1 C-2.01 0.67 -1.02 0.34 0 0 Z " fill="#775A75" transform="translate(302,210)"/>
<path d="M0 0 C1.98 0 3.96 0 6 0 C6.33 1.32 6.66 2.64 7 4 C4.97954558 3.39816251 2.97888961 2.72693904 1 2 C0.67 1.34 0.34 0.68 0 0 Z " fill="#967294" transform="translate(288,203)"/>
<path d="M0 0 C2.64 0.66 5.28 1.32 8 2 C6 4 6 4 2.875 4.125 C1.451875 4.063125 1.451875 4.063125 0 4 C0 2.68 0 1.36 0 0 Z " fill="#8C7188" transform="translate(251,158)"/>
</svg>
